<svg width="59" height="58" viewBox="0 0 59 58" fill="none" xmlns="http://www.w3.org/2000/svg">
<path d="M0 15H16.8342V41.0306H42.8647V57.8647H0V15ZM14.8857 16.9484H1.94838V55.9164H40.9164V42.9789H14.8857L14.8857 16.9484ZM4.69566 50.4218H0.97421V48.4735H4.69566V50.4218ZM6.54663 42.979H0.97421V41.0306H6.54663V42.979ZM4.69566 35.5556H0.97421V33.6072H4.69566V35.5556ZM6.54663 28.1127H0.97421V26.1644H6.54663V28.1127ZM9.39127 56.8905H7.44285V53.1691H9.39123L9.39127 56.8905ZM16.8341 56.8905H14.8857V51.3181H16.8341V56.8905ZM24.2575 56.8905H22.3092V53.1691H24.2575L24.2575 56.8905ZM31.7004 56.8905H29.7521V51.3181H31.7004V56.8905Z" fill="black"/>
<path d="M58.0674 42.8643L41.2334 42.9439L41.1102 16.9136L15.0799 17.0368L15.0003 0.202859L57.8645 -3.23604e-07L58.0674 42.8643ZM43.1726 40.9863L56.1098 40.9251L55.9254 1.95757L16.9578 2.14199L17.0191 15.0793L43.0494 14.9561L43.1726 40.9863ZM53.2041 7.46507L56.9255 7.44746L56.9348 9.39577L53.2134 9.41339L53.2041 7.46507ZM51.3884 14.9166L56.9608 14.8902L56.97 16.8386L51.3976 16.865L51.3884 14.9166ZM53.2745 22.3311L56.9959 22.3135L57.0051 24.2618L53.2837 24.2795L53.2745 22.3311ZM51.4588 29.7827L57.0311 29.7563L57.0403 31.7046L51.468 31.731L51.4588 29.7827ZM48.478 1.01864L50.4264 1.00942L50.444 4.73083L48.4956 4.74005L48.478 1.01864ZM41.0352 1.05387L42.9836 1.04464L43.0099 6.617L41.0616 6.62622L41.0352 1.05387ZM33.6119 1.089L35.5602 1.07978L35.5778 4.80118L33.6295 4.8104L33.6119 1.089ZM26.169 1.12422L28.1174 1.115L28.1438 6.68736L26.1954 6.69658L26.169 1.12422Z" fill="black"/>
</svg>
