<svg width="71" height="71" viewBox="0 0 71 71" fill="none" xmlns="http://www.w3.org/2000/svg">
<path d="M47.0281 59.6499L24.9313 60.2497L23.9597 11.3503L46.0566 10.7506L47.0281 59.6499ZM29.0605 55.9217L42.7314 55.5506L41.9273 15.0786L28.2563 15.4496L29.0605 55.9217ZM43.7502 25.9566L37.4347 26.128L37.3511 21.915L43.6666 21.7437L43.7502 25.9566ZM43.9179 34.3887L39.6877 34.5035L39.604 30.2906L43.8342 30.1757L43.9179 34.3887ZM44.0853 42.8207L37.7698 42.992L37.6861 38.7791L44.0016 38.6076L44.0853 42.8207ZM44.2455 51.2543L40.0223 51.3466L39.9686 47.1446L44.1767 47.0379L44.2455 51.2543Z" fill="black"/>
</svg>
